<?xml version="1.0" encoding="UTF-8" standalone="no"?>
<!-- Created with Inkscape (http://www.inkscape.org/) -->

<svg
   width="210mm"
   height="297mm"
   viewBox="0 0 210 297"
   version="1.1"
   id="svg1"
   inkscape:version="1.3.2 (091e20e, 2023-11-25, custom)"
   sodipodi:docname="title.svg"
   xmlns:inkscape="http://www.inkscape.org/namespaces/inkscape"
   xmlns:sodipodi="http://sodipodi.sourceforge.net/DTD/sodipodi-0.dtd"
   xmlns="http://www.w3.org/2000/svg"
   xmlns:svg="http://www.w3.org/2000/svg">
  <sodipodi:namedview
     id="namedview1"
     pagecolor="#ffffff"
     bordercolor="#000000"
     borderopacity="0.25"
     inkscape:showpageshadow="2"
     inkscape:pageopacity="0.0"
     inkscape:pagecheckerboard="0"
     inkscape:deskcolor="#d1d1d1"
     inkscape:document-units="mm"
     inkscape:zoom="0.97890839"
     inkscape:cx="396.87064"
     inkscape:cy="305.95304"
     inkscape:window-width="1920"
     inkscape:window-height="991"
     inkscape:window-x="-9"
     inkscape:window-y="-9"
     inkscape:window-maximized="1"
     inkscape:current-layer="layer1" />
  <defs
     id="defs1" />
  <g
     inkscape:label="Слой 1"
     inkscape:groupmode="layer"
     id="layer1">
    <path
       style="font-size:50.8px;font-family:'Informal Roman';-inkscape-font-specification:'Informal Roman, ';stroke-width:0.264583"
       d="m 63.105512,17.576739 q -5.705078,7.342188 -9.996289,14.65957 -4.688086,7.98711 -4.688086,9.475391 0,0.719336 0.79375,0.719336 0.173633,0 2.158008,-0.223242 1.041797,-0.124024 1.835547,-0.124024 1.041797,0 1.041797,0.719336 0,0.620117 -1.190625,0.719336 -6.300391,0.644922 -10.790039,2.530078 -1.810742,0.768945 -2.133203,0.768945 -0.620118,0 -0.620118,-0.644921 0,-0.471289 0.446485,-0.744141 0.79375,-0.471289 4.092773,-1.810742 0.148828,-0.347266 1.116211,-2.629297 3.621484,-8.408789 11.410156,-19.223633 1.240235,-1.686718 1.240235,-1.95957 0,-0.396875 -0.446485,-0.396875 -0.620117,0 -2.579687,0.967383 -0.595313,0.297656 -0.917774,0.223242 -0.37207,-0.124023 -0.37207,-0.520898 0,-0.595313 0.644922,-0.967383 3.224609,-1.810742 8.011914,-2.951758 3.199804,-0.768945 4.787304,-0.768945 1.413868,0 1.413868,0.74414 0,0.545704 -0.595313,0.694532 -0.198437,0.04961 -2.133203,0.248047 -1.141016,0.124023 -2.530078,0.496093 z m 2.133203,23.986133 q 2.678906,-2.976563 5.159375,-5.506641 4.316015,-4.365625 6.449218,-6.176367 -1.562695,0.396875 -4.142382,1.289844 -0.396875,0.148828 -0.644922,0.148828 -0.620117,0 -0.620117,-0.620117 0,-0.446485 0.620117,-0.768945 2.182812,-1.116211 7.14375,-2.00918 3.050976,-0.570508 4.836914,-0.570508 0.892968,0 0.892968,0.620117 0,0.496094 -0.496093,0.644922 -0.223242,0.07441 -1.736328,0.248047 -2.356446,0.322461 -3.795118,1.240234 -1.339453,0.768946 -5.630663,5.035352 -6.077149,6.151562 -9.425782,10.417968 -0.595312,0.768946 -0.967382,0.768946 -0.496094,0 -0.595313,-0.768946 -0.09922,-0.74414 -0.09922,-3.54707 0,-5.084961 0.570508,-11.310937 -0.818555,0.322461 -1.736328,0.719336 -1.488281,0.669726 -1.810742,0.669726 -0.595313,0 -0.595313,-0.595312 0,-0.446485 0.644922,-0.818555 2.480469,-1.438672 6.796485,-2.604492 3.001367,-0.818555 4.688085,-0.818555 0.84336,0 0.84336,0.644922 0,0.42168 -0.396875,0.595313 -0.223242,0.09922 -1.984375,0.347265 -2.083594,0.297657 -2.80293,0.818555 -0.694531,0.520898 -0.843359,1.860351 -0.372071,3.323829 -0.372071,6.151563 0,3.175 0.04961,3.894336 z M 88.530318,28.664434 q 3.075782,-0.868164 5.208985,-0.868164 1.934765,0 3.001367,0.694532 1.215429,0.79375 1.215429,2.356445 0,1.240234 -1.16582,3.398242 -0.347265,0.620117 -1.95957,3.299023 -2.827734,4.688086 -2.827734,5.060157 0,0.595312 0.620117,0.595312 0.248047,0 1.711523,-0.42168 1.265039,-0.347265 1.686719,-0.347265 0.719336,0 0.719336,0.644922 0,0.545703 -0.768946,0.719336 -2.926953,0.669726 -6.424414,2.306836 -0.644921,0.297656 -0.992187,0.297656 -0.868164,0 -0.868164,-1.016992 0,-0.744141 1.339453,-3.249414 -4.514453,2.33164 -7.317383,2.33164 -1.53789,0 -2.38125,-0.818555 -0.868164,-0.818554 -0.868164,-2.083593 0,-2.406055 2.604492,-4.39043 4.39043,-3.348633 12.972852,-3.720703 0.768945,-1.289844 0.768945,-2.182812 0,-0.967383 -0.843359,-1.463477 -0.719336,-0.446484 -1.860352,-0.446484 -2.282031,0 -5.035351,0.967383 -0.79375,1.016992 -1.21543,1.711523 -0.396875,0.644922 -0.942578,0.644922 -0.446484,0 -0.446484,-0.570508 0,-0.967383 3.274218,-4.588867 1.860352,-2.033984 3.646289,-3.249414 0.396875,-0.272852 0.644922,-0.272852 0.570508,0 0.570508,0.545703 0,0.322461 -0.297656,0.644922 -0.07441,0.04961 -1.711524,1.438672 -0.446484,0.396875 -2.058789,2.033984 z m 1.190625,12.104688 0.248047,-0.396875 1.612305,-2.629297 q 1.637109,-2.728516 1.860351,-3.100586 -3.770312,0.198438 -6.846093,1.364258 -2.703711,1.041797 -4.043164,2.356445 -1.116211,1.091406 -1.116211,2.158008 0,0.992187 0.917773,1.562695 0.595313,0.347266 1.339453,0.347266 2.033985,0 6.027539,-1.661914 z m 10.417967,2.455664 q 2.50527,-5.308203 6.42441,-11.385352 0.19844,-0.322461 0.19844,-0.570507 0,-0.520899 -0.5209,-0.520899 -0.37207,0 -2.55488,0.719336 -1.38906,0.446484 -1.5875,0.446484 -0.5457,0 -0.5457,-0.669726 0,-0.396875 0.52089,-0.669727 0.79375,-0.421679 4.29121,-1.438671 2.55489,-0.744141 3.39825,-0.744141 1.0914,0 1.0914,0.868164 0,0.347266 -0.22324,0.744141 -0.86816,1.612304 -1.19062,2.282031 3.47265,-2.976563 6.54843,-2.976563 1.88516,0 2.77813,1.116211 0.69453,0.84336 0.69453,2.00918 0,1.339453 -0.89297,3.472656 -0.22324,0.520899 -1.5875,3.299023 -0.76894,1.612305 -0.76894,2.108399 0,0.644922 0.59531,0.744141 0.19844,0.04961 2.15801,-0.124024 0.96738,-0.09922 1.53789,-0.09922 0.86816,0 0.86816,0.669727 0,0.620117 -0.76894,0.669726 -3.52227,0.322461 -5.08497,0.719336 -2.40605,0.595313 -6.57324,2.455664 -0.57051,0.248047 -0.86816,0.248047 -0.57051,0 -0.57051,-0.595312 0,-0.570508 0.74414,-0.942578 1.48828,-0.719336 3.49746,-1.513086 0.59531,-0.992188 2.48047,-4.588867 2.23242,-4.291211 2.23242,-5.804297 0,-0.868164 -0.5457,-1.364258 -0.57051,-0.520898 -1.41387,-0.520898 -2.38125,0 -5.3082,2.654101 -2.87734,2.629297 -4.51445,6.250781 -0.62012,1.339453 -0.62012,1.686719 0,0.694531 0.96738,0.694531 l 1.76113,-0.0248 q 1.63711,0 1.93477,0.09922 0.42168,0.148828 0.42168,0.595313 0,0.74414 -1.0418,0.74414 -2.77812,-0.0248 -4.56406,0.198438 -1.95957,0.248047 -3.720703,0.719336 -1.810742,0.644922 -3.770313,1.190625 -0.297656,0.09922 -0.545703,0.09922 -0.595312,0 -0.595312,-0.595313 0,-0.545703 0.694531,-0.843359 1.810742,-0.818555 4.53926,-1.513086 z m 63.05351,3.447851 q -1.68671,-2.951757 -2.90214,-5.605859 -2.05879,1.711523 -4.7377,3.199805 -4.14238,2.282031 -7.73906,2.282031 -2.72852,0 -4.51446,-1.711524 -1.78593,-1.736328 -1.78593,-4.514453 0,-3.199804 2.6541,-6.027539 2.05879,-2.182812 5.95312,-3.943945 1.19063,-0.545703 5.13457,-2.108398 -0.91777,-2.80293 -0.91777,-5.060156 0,-3.522266 3.27422,-5.55625 2.6541,-1.63711 5.95312,-1.63711 2.45567,0 3.89434,0.992188 1.5627,1.116211 1.5627,3.175 0,2.257226 -2.1084,4.291211 -2.23242,2.182812 -8.48321,4.241601 1.5627,4.836914 3.42305,8.681641 1.24024,-1.016993 2.67891,-2.80293 1.28984,-1.637109 1.93476,-2.852539 -1.0666,0.248047 -2.00918,0.520898 -1.66191,0.471289 -1.95957,0.471289 -0.57051,0 -0.57051,-0.496093 0,-0.719336 0.74415,-0.992188 2.6789,-1.016992 7.88789,-1.934765 3.7207,-0.644922 5.63066,-0.644922 0.79375,0 0.79375,0.694531 0,0.694531 -1.09141,0.79375 -5.68027,0.471289 -6.42441,1.041797 -0.57051,0.322461 -1.11621,0.992187 -0.24805,0.297657 -1.98438,2.604493 -2.00918,2.70371 -3.86953,4.142382 1.53789,3.299024 2.33164,4.340821 0.37207,0.471289 0.96739,0.471289 0.49609,0 1.31464,-0.620118 3.27422,-2.480468 3.86954,-2.480468 0.64492,0 0.64492,0.669726 0,0.322461 -0.24805,0.595313 -0.14883,0.148828 -2.70371,1.95957 -1.71152,1.190625 -3.94395,3.423047 -0.62011,0.644922 -3.02617,3.323828 -0.44648,0.471289 -0.84336,0.471289 -0.62011,0 -0.62011,-0.669727 0,-0.396875 0.32246,-0.818554 1.19062,-1.5875 2.62929,-2.902149 z m -3.59668,-7.118945 q -0.91777,-1.860351 -2.30683,-5.481836 -1.14102,-3.001367 -1.51309,-4.266406 -4.86172,1.934766 -7.14375,3.770313 -3.57187,2.902148 -3.57187,6.424413 0,2.033985 1.28984,3.22461 1.26504,1.141015 3.175,1.141015 2.87734,0 6.67246,-2.33164 2.03399,-1.265039 3.39824,-2.480469 z m -1.5875,-12.352734 q 2.80293,-0.843359 4.88653,-2.158008 1.51308,-0.967383 2.35644,-2.33164 0.64492,-1.041797 0.64492,-2.083594 0,-1.091406 -0.62011,-1.934766 -0.91778,-1.190625 -2.60449,-1.190625 -1.95957,0 -3.59668,1.513086 -1.83555,1.661914 -1.83555,4.167188 0,1.562695 0.76894,4.018359 z"
       id="path3" />
    <path
       style="font-size:50.8px;font-family:'Informal Roman';-inkscape-font-specification:'Informal Roman, ';stroke-width:0.264583"
       d="m 63.105512,82.848089 q -5.705078,7.34219 -9.996289,14.65957 -4.688086,7.987111 -4.688086,9.475391 0,0.71934 0.79375,0.71934 0.173633,0 2.158008,-0.22324 1.041797,-0.12403 1.835547,-0.12403 1.041797,0 1.041797,0.71934 0,0.62012 -1.190625,0.71933 -6.300391,0.64493 -10.790039,2.53008 -1.810742,0.76895 -2.133203,0.76895 -0.620118,0 -0.620118,-0.64492 0,-0.47129 0.446485,-0.74415 0.79375,-0.47128 4.092773,-1.81074 0.148828,-0.34726 1.116211,-2.62929 3.621484,-8.408791 11.410156,-19.223641 1.240235,-1.68672 1.240235,-1.95957 0,-0.39687 -0.446485,-0.39687 -0.620117,0 -2.579687,0.96738 -0.595313,0.29766 -0.917774,0.22324 -0.37207,-0.12402 -0.37207,-0.5209 0,-0.59531 0.644922,-0.96738 3.224609,-1.81074 8.011914,-2.95176 3.199804,-0.76894 4.787304,-0.76894 1.413868,0 1.413868,0.74414 0,0.5457 -0.595313,0.69453 -0.198437,0.0496 -2.133203,0.24805 -1.141016,0.12402 -2.530078,0.49609 z m -4.886524,26.044921 q 2.033985,-4.56406 6.573243,-11.558981 0.297656,-0.44649 0.297656,-0.74414 0,-0.57051 -0.744141,-0.44649 -0.545703,0.0744 -3.472656,1.16582 -0.446484,0.14883 -0.669727,0.14883 -0.545703,0 -0.545703,-0.62012 0,-0.42168 0.570508,-0.69453 1.066602,-0.5457 4.316016,-1.53789 2.554882,-0.79375 3.621484,-0.79375 1.016992,0 1.016992,0.84336 0,0.5209 -0.446484,1.19063 -0.04961,0.0992 -1.21543,1.81074 -0.892969,1.36426 -1.438672,2.28203 3.274219,-2.38125 7.887891,-4.14238 1.934765,-2.33164 3.175,-2.33164 1.240234,0 1.240234,1.0666 0,1.21543 -2.778125,2.50527 -0.520898,0.96738 -0.520898,2.15801 0,0.37207 0.09922,1.141021 -0.868164,1.0666 -1.885156,1.0666 -1.364258,0 -1.364258,-1.31465 0,-0.868171 0.644922,-2.257231 -3.026172,0.89297 -5.804297,3.001371 -2.70371,2.00918 -3.993554,4.61367 -0.496094,1.01699 -0.496094,1.53789 0,0.91778 1.389063,0.91778 l 1.736328,-0.0248 q 1.215429,0 1.661914,0.0992 0.595312,0.0992 0.595312,0.64492 0,0.69453 -1.289844,0.64492 -3.026171,-0.0992 -6.002734,0.62012 -1.711523,0.44648 -5.705078,1.86035 -1.141015,0.42168 -1.141015,-0.5457 0,-0.4961 0.79375,-0.84336 1.711523,-0.74414 3.894335,-1.46348 z M 90.241839,85.055709 q 0.79375,0 1.289844,0.49609 0.471289,0.47129 0.471289,1.26504 0,0.94258 -0.694531,1.51309 -0.570508,0.47129 -1.463477,0.47129 -0.917773,0 -1.389062,-0.57051 -0.396875,-0.44649 -0.396875,-1.11621 0,-0.76895 0.520898,-1.33946 0.644922,-0.71933 1.661914,-0.71933 z m -13.841015,23.217191 0.198437,-0.37207 q 3.249414,-6.10196 6.598047,-11.162111 0.42168,-0.62012 0.42168,-0.84336 0,-0.39688 -0.42168,-0.39688 -0.545703,0 -4.241601,1.36426 -0.446485,0.17363 -0.644922,0.17363 -0.545703,0 -0.545703,-0.57051 0,-0.37207 0.322461,-0.59531 1.16582,-0.84336 5.655468,-2.03398 2.133203,-0.57051 2.877344,-0.57051 1.21543,0 1.21543,0.86816 0,0.32246 -0.198438,0.71934 -0.272851,0.5209 -2.009179,3.10059 -1.141016,1.73632 -3.547071,5.705071 -1.438672,2.40606 -1.438672,3.07578 0,0.64493 0.917774,0.64493 l 3.249414,-0.0496 q 1.041797,0 1.041797,0.69453 0,0.74414 -1.116211,0.74414 -3.274219,0.0496 -4.936133,0.34726 -1.810742,0.32247 -3.571875,0.89297 -1.736328,0.54571 -3.299023,1.16582 -0.42168,0.14883 -0.669727,0.14883 -0.644922,0 -0.644922,-0.64492 0,-0.5457 0.744141,-0.91777 1.488281,-0.69453 4.043164,-1.48828 z m 12.07988,0.22324 q 2.505274,-5.30821 6.424414,-11.385351 0.198438,-0.32246 0.198438,-0.57051 0,-0.5209 -0.520898,-0.5209 -0.372071,0 -2.554883,0.71934 -1.389063,0.44648 -1.5875,0.44648 -0.545703,0 -0.545703,-0.66973 0,-0.39687 0.520898,-0.66972 0.79375,-0.42168 4.291211,-1.43867 2.554883,-0.74415 3.398242,-0.74415 1.091406,0 1.091406,0.86817 0,0.34726 -0.223242,0.74414 -0.868164,1.6123 -1.190625,2.28203 3.472658,-2.97656 6.548438,-2.97656 1.88516,0 2.77813,1.11621 0.69453,0.84336 0.69453,2.00918 0,1.33945 -0.89297,3.472651 -0.22324,0.5209 -1.5875,3.29903 -0.76895,1.6123 -0.76895,2.1084 0,0.64492 0.59531,0.74414 0.19844,0.0496 2.15801,-0.12403 0.96739,-0.0992 1.53789,-0.0992 0.86817,0 0.86817,0.66972 0,0.62012 -0.76895,0.66973 -3.52226,0.32246 -5.08496,0.71933 -2.40605,0.59532 -6.573242,2.45567 -0.570507,0.24805 -0.868164,0.24805 -0.570507,0 -0.570507,-0.59532 0,-0.57051 0.74414,-0.94258 1.488281,-0.71933 3.497463,-1.51308 0.59531,-0.99219 2.48047,-4.58887 2.23242,-4.291211 2.23242,-5.804301 0,-0.86816 -0.5457,-1.36425 -0.57051,-0.5209 -1.41387,-0.5209 -2.38125,0 -5.308205,2.6541 -2.877343,2.629301 -4.514453,6.250781 -0.620117,1.33945 -0.620117,1.68672 0,0.69453 0.967383,0.69453 l 1.761133,-0.0248 q 1.637109,0 1.934765,0.0992 0.42168,0.14882 0.42168,0.59531 0,0.74414 -1.041797,0.74414 -2.778125,-0.0248 -4.564062,0.19844 -1.959571,0.24804 -3.720703,0.71933 -1.810743,0.64492 -3.770313,1.19063 -0.297656,0.0992 -0.545703,0.0992 -0.595312,0 -0.595312,-0.59532 0,-0.5457 0.694531,-0.84336 1.810742,-0.81855 4.539257,-1.51308 z M 120.45395,93.935789 q 3.07578,-0.86817 5.20898,-0.86817 1.93477,0 3.00137,0.69453 1.21543,0.79375 1.21543,2.35645 0,1.24023 -1.16582,3.39824 -0.34727,0.620121 -1.95957,3.299021 -2.82773,4.68809 -2.82773,5.06016 0,0.59531 0.62011,0.59531 0.24805,0 1.71153,-0.42168 1.26503,-0.34726 1.68671,-0.34726 0.71934,0 0.71934,0.64492 0,0.5457 -0.76894,0.71934 -2.92696,0.66972 -6.42442,2.30683 -0.64492,0.29766 -0.99219,0.29766 -0.86816,0 -0.86816,-1.01699 0,-0.74415 1.33945,-3.24942 -4.51445,2.33164 -7.31738,2.33164 -1.53789,0 -2.38125,-0.81855 -0.86816,-0.81856 -0.86816,-2.0836 0,-2.40605 2.60449,-4.39043 4.39043,-3.348631 12.97285,-3.720701 0.76894,-1.28984 0.76894,-2.18281 0,-0.96738 -0.84335,-1.46348 -0.71934,-0.44648 -1.86036,-0.44648 -2.28203,0 -5.03535,0.96738 -0.79375,1.01699 -1.21543,1.71152 -0.39687,0.64493 -0.94258,0.64493 -0.44648,0 -0.44648,-0.57051 0,-0.96739 3.27422,-4.58887 1.86035,-2.03398 3.64629,-3.24941 0.39687,-0.27285 0.64492,-0.27285 0.57051,0 0.57051,0.5457 0,0.32246 -0.29766,0.64492 -0.0744,0.0496 -1.71152,1.43867 -0.44649,0.39688 -2.05879,2.03399 z m 1.19062,12.104681 0.24805,-0.39687 1.61231,-2.6293 q 1.6371,-2.72851 1.86035,-3.100581 -3.77032,0.198431 -6.8461,1.364251 -2.70371,1.0418 -4.04316,2.35645 -1.11621,1.09141 -1.11621,2.15801 0,0.99218 0.91777,1.56269 0.59531,0.34727 1.33946,0.34727 2.03398,0 6.02753,-1.66192 z"
       id="path4" />
  </g>
</svg>
